<?xml version="1.0" encoding="UTF-8" standalone="no"?>
<!-- Created with Inkscape (http://www.inkscape.org/) -->

<svg
   width="37.041668mm"
   height="37.041668mm"
   viewBox="0 0 37.041668 37.041668"
   version="1.1"
   id="svg6263"
   sodipodi:docname="TEGSnippets.ink.svg"
   inkscape:version="1.3 (0e150ed, 2023-07-21)"
   xmlns:inkscape="http://www.inkscape.org/namespaces/inkscape"
   xmlns:sodipodi="http://sodipodi.sourceforge.net/DTD/sodipodi-0.dtd"
   xmlns="http://www.w3.org/2000/svg"
   xmlns:svg="http://www.w3.org/2000/svg">
  <sodipodi:namedview
     id="namedview1"
     pagecolor="#ffffff"
     bordercolor="#666666"
     borderopacity="1.0"
     inkscape:showpageshadow="2"
     inkscape:pageopacity="0.0"
     inkscape:pagecheckerboard="true"
     inkscape:deskcolor="#d1d1d1"
     inkscape:document-units="mm"
     inkscape:zoom="10.757142"
     inkscape:cx="70.000002"
     inkscape:cy="70.000002"
     inkscape:window-width="3104"
     inkscape:window-height="1719"
     inkscape:window-x="1680"
     inkscape:window-y="25"
     inkscape:window-maximized="0"
     inkscape:current-layer="svg6263"
     showgrid="false" />
  <defs
     id="defs6260" />
  <path
     d="M 25.094915,8.5028322 C 23.09473,8.0604561 21.267949,9.5523117 20.294065,11.168963 L 14.108803,21.236672 C 10.488222,21.823408 8.2885188,24.173953 7.7620814,23.497455 7.3505944,22.968676 7.926328,22.706708 6.7822503,21.38648 5.6837495,20.118854 3.542632,20.214796 2.3055754,21.31648 c -1.31099474,1.00765 -1.88545163,3.06028 -0.8239688,4.448247 0.9837154,1.46468 3.15577,1.84572 4.6083157,0.861395 1.8062045,-1.018602 3.9096165,-4.229815 7.1295857,-2.866439 0.436361,2.627889 -1.33715,4.016243 -3.016248,5.174364 -1.3940334,0.961499 -2.6990394,2.590984 -2.314878,4.397735 0.363123,1.735422 2.358307,3.055099 4.069639,2.341029 1.831929,-0.585951 3.274571,-2.769656 2.338381,-4.671859 -0.721628,-1.466236 -2.077669,-1.363796 -2.09117,-2.089422 -0.01018,-0.547513 1.790854,-1.627219 3.697184,-5.224186 L 27.951643,19.66235 c 1.45431,-0.596206 2.905548,-1.743454 3.049681,-3.741849 L 18.314307,19.843782 25.094871,8.5028005 Z M 4.0563586,21.630286 c 1.9745143,-0.302614 3.4844808,1.86968 2.3682852,3.386513 -0.9429643,1.457011 -3.5743137,1.485815 -4.252876,-0.237011 -0.653624,-1.338242 0.5328846,-2.942348 1.8845908,-3.149502 z m 6.6935264,8.478031 c 1.849057,-0.587278 3.496281,2.032693 2.289869,3.495888 -0.70699,1.090153 -2.46843,1.683956 -3.4545112,0.618949 C 8.3165705,32.982491 8.9716989,30.4598 10.749885,30.108317 Z"
     id="path4599"
     style="fill:#1a1a1a;stroke:#ffffff;stroke-width:1.42322;stroke-linejoin:round;stroke-dasharray:none;marker-start:none" />
  <path
     id="path9364"
     style="fill:#7d4597;fill-opacity:1;stroke:none;stroke-width:0.220014;stroke-linecap:round;stroke-linejoin:round;stroke-miterlimit:0"
     d="M 28.674639,27.673157 C 35.22126,24.41234 38.114749,16.528684 35.317634,9.5735199 32.520543,2.618168 24.974253,-1.067155 17.992718,1.1126815 l 0.755036,1.8767395 c 5.882183,-1.8342506 12.292997,1.3912476 14.710003,7.401103 2.417002,6.009847 0.0245,12.775803 -5.489744,15.524907 z" />
  <path
     d="M 25.094915,8.5028322 C 23.09473,8.0604561 21.267949,9.5523117 20.294065,11.168963 L 14.108803,21.236672 C 10.488222,21.823408 8.2885188,24.173953 7.7620814,23.497455 7.3505944,22.968676 7.926328,22.706708 6.7822503,21.38648 5.6837495,20.118854 3.542632,20.214796 2.3055754,21.31648 c -1.31099474,1.00765 -1.88545163,3.06028 -0.8239688,4.448247 0.9837154,1.46468 3.15577,1.84572 4.6083157,0.861395 1.8062045,-1.018602 3.9096165,-4.229815 7.1295857,-2.866439 0.436361,2.627889 -1.33715,4.016243 -3.016248,5.174364 -1.3940334,0.961499 -2.6990394,2.590984 -2.314878,4.397735 0.363123,1.735422 2.358307,3.055099 4.069639,2.341029 1.831929,-0.585951 3.274571,-2.769656 2.338381,-4.671859 -0.721628,-1.466236 -2.077669,-1.363796 -2.09117,-2.089422 -0.01018,-0.547513 1.790854,-1.627219 3.697184,-5.224186 L 27.951643,19.66235 c 1.45431,-0.596206 2.905548,-1.743454 3.049681,-3.741849 L 18.314307,19.843782 25.094871,8.5028005 Z M 4.0563586,21.630286 c 1.9745143,-0.302614 3.4844808,1.86968 2.3682852,3.386513 -0.9429643,1.457011 -3.5743137,1.485815 -4.252876,-0.237011 -0.653624,-1.338242 0.5328846,-2.942348 1.8845908,-3.149502 z m 6.6935264,8.478031 c 1.849057,-0.587278 3.496281,2.032693 2.289869,3.495888 -0.70699,1.090153 -2.46843,1.683956 -3.4545112,0.618949 C 8.3165705,32.982491 8.9716989,30.4598 10.749885,30.108317 Z"
     id="path2"
     style="fill:#ff0000;stroke:none;stroke-width:1.42322;stroke-linejoin:miter;stroke-dasharray:none;marker-start:none" />
  <path
     d="m 27.186077,18.018812 q -0.543676,1.031971 -1.435789,1.827763 -0.88263,0.791975 -2.172648,1.310786 -0.920087,0.370036 -1.742793,0.324596 -0.822709,-0.04544 -1.522826,-0.44366 -0.69063,-0.402034 -1.251344,-1.111238 -0.555431,-0.723467 -0.921032,-1.63253 -0.57992,-1.441965 -0.72051,-2.914947 -0.131104,-1.476795 0.176881,-2.76601 0.303783,-1.299663 1.060221,-2.295809 0.761722,-1.0104112 1.975857,-1.4987044 1.479727,-0.5951072 2.559138,-0.240178 1.079412,0.3549285 1.592094,1.6297074 0.319377,0.794125 0.260659,1.497528 -0.06292,0.692954 -0.401759,1.302649 -0.338837,0.609695 -0.907246,1.141771 -0.572608,0.521626 -1.282096,0.976911 -0.709485,0.455291 -1.509506,0.849864 -0.794731,0.380325 -1.577818,0.707406 0.03039,0.157735 0.07131,0.286933 0.05043,0.125385 0.08405,0.208981 0.03362,0.08359 0.04203,0.104497 0.294163,0.731432 0.673816,1.319228 0.38494,0.573531 0.831228,0.916026 0.451574,0.328229 0.965587,0.400708 0.509808,0.06203 1.088419,-0.170676 0.493244,-0.198371 0.925488,-0.493607 0.441731,-0.299052 0.810827,-0.641709 0.374376,-0.356929 0.670826,-0.743214 0.30594,-0.390098 0.531789,-0.760129 z m -8.071098,-2.42296 q 0.574384,-0.243219 1.17415,-0.532918 0.599742,-0.28976 1.136329,-0.626955 0.536586,-0.3372 0.977361,-0.720825 0.45026,-0.387447 0.729903,-0.815527 0.279642,-0.428079 0.342321,-0.902436 0.07216,-0.478168 -0.137951,-1.000618 -0.294163,-0.73143 -0.891261,-0.9283 -0.6013,-0.2073182 -1.45499,0.136014 -0.739862,0.297553 -1.180878,0.899785 -0.445218,0.591783 -0.659907,1.345775 -0.2052,0.750174 -0.204006,1.575152 0.01068,0.821161 0.168923,1.570838 z"
     style="fill:#ffffff;stroke:#000000;stroke-width:0.880053;stroke-linejoin:round;stroke-dasharray:none"
     id="path5787" />
  <path
     d="m 27.186077,18.018812 q -0.543676,1.031971 -1.435789,1.827763 -0.88263,0.791975 -2.172648,1.310786 -0.920087,0.370036 -1.742793,0.324596 -0.822709,-0.04544 -1.522826,-0.44366 -0.69063,-0.402034 -1.251344,-1.111238 -0.555431,-0.723467 -0.921032,-1.63253 -0.57992,-1.441965 -0.72051,-2.914947 -0.131104,-1.476795 0.176881,-2.76601 0.303783,-1.299663 1.060221,-2.295809 0.761722,-1.0104112 1.975857,-1.4987044 1.479727,-0.5951072 2.559138,-0.240178 1.079412,0.3549285 1.592094,1.6297074 0.319377,0.794125 0.260659,1.497528 -0.06292,0.692954 -0.401759,1.302649 -0.338837,0.609695 -0.907246,1.141771 -0.572608,0.521626 -1.282096,0.976911 -0.709485,0.455291 -1.509506,0.849864 -0.794731,0.380325 -1.577818,0.707406 0.03039,0.157735 0.07131,0.286933 0.05043,0.125385 0.08405,0.208981 0.03362,0.08359 0.04203,0.104497 0.294163,0.731432 0.673816,1.319228 0.38494,0.573531 0.831228,0.916026 0.451574,0.328229 0.965587,0.400708 0.509808,0.06203 1.088419,-0.170676 0.493244,-0.198371 0.925488,-0.493607 0.441731,-0.299052 0.810827,-0.641709 0.374376,-0.356929 0.670826,-0.743214 0.30594,-0.390098 0.531789,-0.760129 z m -8.071098,-2.42296 q 0.574384,-0.243219 1.17415,-0.532918 0.599742,-0.28976 1.136329,-0.626955 0.536586,-0.3372 0.977361,-0.720825 0.45026,-0.387447 0.729903,-0.815527 0.279642,-0.428079 0.342321,-0.902436 0.07216,-0.478168 -0.137951,-1.000618 -0.294163,-0.73143 -0.891261,-0.9283 -0.6013,-0.2073182 -1.45499,0.136014 -0.739862,0.297553 -1.180878,0.899785 -0.445218,0.591783 -0.659907,1.345775 -0.2052,0.750174 -0.204006,1.575152 0.01068,0.821161 0.168923,1.570838 z"
     style="fill:#ffffff;stroke-width:0.831549"
     id="path1" />
  <path
     d="m 15.902416,23.68734 12.049227,-4.024994 c 1.45431,-0.596206 2.905548,-1.743454 3.049681,-3.741849 l -14.01593,4.415672"
     id="path4"
     style="fill:#ff0000;stroke:#ffffff;stroke-width:1.42322;stroke-linejoin:miter;stroke-dasharray:none;marker-start:none"
     sodipodi:nodetypes="cccc" />
  <path
     d="m 15.902416,23.68734 12.049227,-4.024994 c 1.45431,-0.596206 2.905548,-1.743454 3.049681,-3.741849 l -14.01593,4.415672 c 0,0 -2.238293,1.243861 -2.206692,2.307714 0.01518,0.510932 1.123714,1.043457 1.123714,1.043457 z"
     id="path3"
     style="fill:#ff0000;stroke:none;stroke-width:1.42322;stroke-linejoin:miter;stroke-dasharray:none;marker-start:none"
     sodipodi:nodetypes="ccccsc" />
</svg>
